<?xml version="1.0" encoding="UTF-8" standalone="no"?>

<svg
   xmlns:dc="http://purl.org/dc/elements/1.1/"
   xmlns:cc="http://creativecommons.org/ns#"
   xmlns:rdf="http://www.w3.org/1999/02/22-rdf-syntax-ns#"
   xmlns:svg="http://www.w3.org/2000/svg"
   xmlns="http://www.w3.org/2000/svg"
   viewBox="0 0 2800 2800"
   height="2800"
   width="2800"
   xml:space="preserve"
   id="svg2"
   version="1.1"><metadata
     id="metadata8"><rdf:RDF><cc:Work
         rdf:about=""><dc:format>image/svg+xml</dc:format><dc:type
           rdf:resource="http://purl.org/dc/dcmitype/StillImage" /></cc:Work></rdf:RDF></metadata><defs
     id="defs6" /><g
     transform="matrix(1.3333333,0,0,-1.3333333,0,2800)"
     id="g10"><g
       transform="scale(0.1)"
       id="g12"><g
         transform="scale(1.28834)"
         id="g14"><path
           id="path16"
           style="fill:#212529;fill-opacity:1;fill-rule:evenodd;stroke:none"
           d="M 0,16300 H 16300 V 0 H 0 v 16300" /></g><g
         transform="scale(1.09347)"
         id="g18"><path
           id="path20"
           style="fill:#212529;fill-opacity:1;fill-rule:nonzero;stroke:none"
           d="M 3532.67,3391.58 H 3410.5 l -146.78,245.64 c -13.35,22.77 -26.27,42.16 -38.99,58.35 -12.72,16.09 -25.65,29.26 -38.78,39.23 -13.34,10.24 -27.53,17.74 -42.74,22.31 -15.22,4.76 -32.52,7.05 -51.71,7.05 h -84.23 v -372.58 h -102.58 v 875.93 h 261.45 c 38.16,0 73.6,-4.85 105.91,-14.36 32.32,-9.61 60.46,-24.06 84.24,-43.62 23.97,-19.57 42.53,-43.99 55.87,-72.98 13.56,-29.18 20.23,-63.2 20.23,-102.34 0,-30.45 -4.6,-58.62 -13.77,-84.04 -9.17,-25.42 -22.09,-48.19 -38.98,-67.95 -16.89,-20.03 -37.32,-37.13 -61.09,-51.12 -23.97,-13.9 -50.67,-24.97 -80.48,-32.74 v -2.29 c 14.8,-6.67 27.52,-13.9 38.37,-22.31 10.63,-8.51 21.05,-18.29 30.64,-29.81 9.79,-11.25 19.61,-24.15 29.2,-38.78 9.58,-14.36 20.21,-31 31.9,-50.21 z m -525.4,783.1 v -317.7 h 139.26 c 25.66,0 49.43,3.93 71.11,11.71 21.89,7.68 40.65,18.74 56.51,33.29 15.84,14.44 28.35,32.09 37.31,53.22 8.96,20.85 13.35,44.35 13.35,70.41 0,46.92 -15.01,83.41 -45.46,109.75 -30.23,26.25 -74.21,39.32 -131.56,39.32 z m 1109.81,-783.1 h -464.11 v 875.93 h 444.72 v -92.83 h -342.14 v -291.46 h 316.5 v -92.09 h -316.5 v -306.72 h 361.53 z m 168.68,0 v 875.93 h 241.84 c 308.57,0 463.07,-142.21 463.07,-426.99 0,-135.08 -42.95,-243.72 -128.65,-325.85 -85.69,-81.93 -200.36,-123.09 -344.21,-123.09 z m 102.57,783.1 v -690.27 h 130.72 c 114.89,0 204.12,30.81 268.13,92.36 64.01,61.46 95.91,148.61 95.91,261.46 0,224.33 -119.27,336.45 -357.98,336.45 z m 1415.25,-428.82 c 0,-245.82 -110.91,-368.82 -332.96,-368.82 -212.45,0 -318.78,118.15 -318.78,354.83 v 535.64 h 102.58 v -528.96 c 0,-179.52 75.88,-269.42 227.25,-269.42 146.15,0 219.34,86.79 219.34,260.27 v 538.11 h 102.57 z m 814.8,-317.52 c -64.63,-34.2 -145.32,-51.3 -241.85,-51.3 -124.69,0 -224.34,40.06 -299.2,120.26 -75.05,80.29 -112.58,185.56 -112.58,315.87 0,139.93 42.32,253.14 126.55,339.47 84.24,86.52 191.2,129.68 320.67,129.68 82.98,0 151.79,-12.07 206.41,-36.12 v -109.47 c -62.75,35.03 -131.97,52.59 -207.66,52.59 -100.49,0 -182.01,-33.57 -244.57,-100.69 -62.54,-67.13 -93.82,-157.03 -93.82,-269.42 0,-106.73 29.2,-191.78 87.57,-254.97 58.59,-63.37 135.11,-95.11 230.17,-95.11 87.79,0 164.1,19.67 228.31,58.62 z m 642.58,-36.76 h -464.11 v 875.93 h 444.72 v -92.83 h -342.14 v -291.46 h 316.49 v -92.09 h -316.49 v -306.72 h 361.53 z m 1139.42,0 H 8278.2 l -146.78,245.64 c -13.36,22.77 -26.28,42.16 -38.99,58.35 -12.72,16.09 -25.65,29.26 -38.78,39.23 -13.34,10.24 -27.52,17.74 -42.74,22.31 -15.22,4.76 -32.53,7.05 -51.72,7.05 h -84.22 V 3391.58 H 7772.4 v 875.93 h 261.45 c 38.14,0 73.59,-4.85 105.92,-14.36 32.31,-9.61 60.45,-24.06 84.22,-43.62 23.97,-19.57 42.53,-43.99 55.88,-72.98 13.55,-29.18 20.22,-63.2 20.22,-102.34 0,-30.45 -4.59,-58.62 -13.76,-84.04 -9.18,-25.42 -22.1,-48.19 -38.99,-67.95 -16.88,-20.03 -37.32,-37.13 -61.09,-51.12 -23.98,-13.9 -50.66,-24.97 -80.48,-32.74 v -2.29 c 14.8,-6.67 27.53,-13.9 38.37,-22.31 10.63,-8.51 21.06,-18.29 30.64,-29.81 9.8,-11.25 19.6,-24.15 29.19,-38.78 9.6,-14.36 20.22,-31 31.9,-50.21 z m -525.41,783.1 v -317.7 h 139.28 c 25.64,0 49.4,3.93 71.08,11.71 21.9,7.68 40.66,18.74 56.51,33.29 15.85,14.44 28.36,32.09 37.32,53.22 8.97,20.85 13.35,44.35 13.35,70.41 0,46.92 -15.01,83.41 -45.45,109.75 -30.24,26.25 -74.23,39.32 -131.56,39.32 z m 1109.81,-783.1 h -464.11 v 875.93 h 444.72 v -92.83 h -342.14 v -291.46 h 316.5 v -92.09 h -316.5 v -306.72 h 361.53 z m 809.34,354.28 c 0,-245.82 -110.93,-368.82 -332.88,-368.82 -212.54,0 -318.84,118.15 -318.84,354.83 v 535.64 h 102.55 v -528.96 c 0,-179.52 75.91,-269.42 227.26,-269.42 146.23,0 219.39,86.79 219.39,260.27 v 538.11 h 102.52 z m 177.69,-318.79 v 120.89 c 13.99,-12.25 30.59,-23.13 49.79,-32.92 19.4,-9.78 39.8,-18.11 61.1,-24.78 21.4,-6.68 42.9,-11.89 64.4,-15.64 21.7,-3.57 41.7,-5.49 59.8,-5.49 63.2,0 110.4,11.71 141.6,35.3 31.1,23.32 46.7,57.07 46.7,100.87 0,23.78 -5.2,44.27 -15.6,61.73 -10.4,17.56 -24.8,33.57 -42.9,47.92 -18.4,14.64 -40.1,28.35 -65.1,41.71 -25.3,13.16 -52.1,27.16 -81.1,41.7 -30.5,15.45 -59,31.28 -85.4,47.19 -26.6,15.82 -49.5,33.29 -69.1,52.49 -19.6,19.21 -34.8,40.88 -46.08,65.02 -11.25,24.24 -16.92,52.59 -16.92,85.15 0,39.96 8.78,74.62 26.34,104.16 17.46,29.63 40.56,53.86 68.96,72.98 28.6,19.2 61.1,33.38 97.6,42.8 36.3,9.32 73.6,14.17 111.4,14.17 86.3,0 149.2,-10.43 188.8,-31.28 v -115.5 c -51.7,35.85 -118.1,53.78 -199.1,53.78 -22.5,0 -44.8,-2.29 -67.3,-6.86 -22.3,-4.85 -42.3,-12.53 -59.9,-22.96 -17.5,-10.6 -31.6,-24.42 -42.7,-41.06 -11.1,-16.73 -16.5,-36.95 -16.5,-61.09 0,-22.32 4.2,-41.7 12.6,-57.98 8.3,-16.28 20.5,-31.09 36.8,-44.63 16.3,-13.35 36.3,-26.43 59.6,-38.96 23.5,-12.71 50.5,-26.52 81,-41.51 31.4,-15.64 61.1,-31.92 89.2,-49.02 28.1,-17.11 52.7,-36.03 73.8,-56.7 21.3,-20.86 38,-43.72 50.4,-68.96 12.6,-25.24 18.6,-54.23 18.6,-86.79 0,-43.16 -8.3,-79.84 -25.2,-109.65 -16.9,-29.99 -39.8,-54.41 -68.4,-72.98 -28.8,-18.74 -62,-32.28 -99.3,-40.6 -37.5,-8.42 -76.9,-12.53 -118.6,-12.53 -13.7,0 -30.8,1.01 -51.3,3.29 -20.2,2.29 -41.1,5.49 -62.3,9.79 -21.1,4.21 -41,9.6 -60.1,15.91 -18.88,6.22 -34.16,13.35 -45.59,21.04 z m 1169.89,-35.49 h -464.2 v 875.93 h 444.8 v -92.83 h -342.1 v -291.46 h 316.4 v -92.09 h -316.4 v -306.72 h 361.5 z m 1139.4,0 h -122.2 l -146.8,245.64 c -13.4,22.77 -26.2,42.16 -39,58.35 -12.7,16.09 -25.7,29.26 -38.7,39.23 -13.4,10.24 -27.6,17.74 -42.8,22.31 -15.2,4.76 -32.5,7.05 -51.7,7.05 h -84.2 v -372.58 h -102.6 v 875.93 h 261.4 c 38.2,0 73.6,-4.85 105.9,-14.36 32.4,-9.61 60.5,-24.06 84.2,-43.62 24.1,-19.57 42.6,-43.99 55.9,-72.98 13.7,-29.18 20.2,-63.2 20.2,-102.34 0,-30.45 -4.5,-58.62 -13.7,-84.04 -9.1,-25.42 -22.1,-48.19 -38.9,-67.95 -17,-20.03 -37.4,-37.13 -61.1,-51.12 -24,-13.9 -50.7,-24.97 -80.5,-32.74 v -2.29 c 14.8,-6.67 27.5,-13.9 38.3,-22.31 10.6,-8.51 21,-18.29 30.6,-29.81 9.8,-11.25 19.7,-24.15 29.2,-38.78 9.6,-14.36 20.3,-31 31.9,-50.21 z m -525.4,783.1 v -317.7 h 139.3 c 25.6,0 49.3,3.93 71,11.71 22,7.68 40.7,18.74 56.5,33.29 15.8,14.44 28.4,32.09 37.3,53.22 9,20.85 13.4,44.35 13.4,70.41 0,46.92 -15,83.41 -45.5,109.75 -30.1,26.25 -74.2,39.32 -131.5,39.32 z m 1109.7,-783.1 h -464 v 875.93 h 444.6 v -92.83 h -342.1 v -291.46 h 316.5 v -92.09 h -316.5 v -306.72 h 361.5 z m 764.8,36.76 c -64.6,-34.2 -145.3,-51.3 -241.8,-51.3 -124.7,0 -224.4,40.06 -299.2,120.26 -75.1,80.29 -112.6,185.56 -112.6,315.87 0,139.93 42.3,253.14 126.5,339.47 84.2,86.52 191.2,129.68 320.7,129.68 83,0 151.9,-12.07 206.4,-36.12 v -109.47 c -62.7,35.03 -131.9,52.59 -207.6,52.59 -100.5,0 -182,-33.57 -244.6,-100.69 -62.5,-67.13 -93.8,-157.03 -93.8,-269.42 0,-106.73 29.2,-191.78 87.5,-254.97 58.6,-63.37 135.2,-95.11 230.2,-95.11 87.8,0 164.1,19.67 228.3,58.62 z m 747.7,839.17 -288.7,-552.1 v -323.83 h -102.8 v 321.36 l -281.5,554.57 h 116.5 l 196.2,-395.72 c 2.3,-5.03 9.6,-22.95 21.3,-53.77 h 1.9 c 4.1,13.72 11.9,31.64 23.1,53.77 l 205.3,395.72 z m 690.7,-839.17 c -64.6,-34.2 -145.3,-51.3 -241.8,-51.3 -124.7,0 -224.3,40.06 -299.2,120.26 -75.1,80.29 -112.6,185.56 -112.6,315.87 0,139.93 42.3,253.14 126.6,339.47 84.2,86.52 191.2,129.68 320.6,129.68 83,0 151.8,-12.07 206.4,-36.12 v -109.47 c -62.7,35.03 -132,52.59 -207.6,52.59 -100.5,0 -182.1,-33.57 -244.6,-100.69 -62.6,-67.13 -93.9,-157.03 -93.9,-269.42 0,-106.73 29.3,-191.78 87.7,-254.97 58.6,-63.37 135,-95.11 230.1,-95.11 87.8,0 164.1,19.67 228.3,58.62 z m 632.8,-36.76 h -454.3 v 875.93 h 102.5 v -783.1 h 351.8 z m 598.6,0 h -464.1 v 875.93 h 444.7 v -92.83 h -342.1 v -291.46 h 316.4 v -92.09 h -316.4 v -306.72 h 361.5 v -92.83" /></g><path
         id="path22"
         style="fill:#1a1a1a;fill-opacity:1;fill-rule:evenodd;stroke:none"
         d="m 5439.59,13872.5 c 69.41,730.3 285.97,1377.7 618.23,1960.1 632.46,-1095.4 1264.93,-2190.9 1897.39,-3286.4 -437.47,-252.5 -874.95,-505.1 -1312.42,-757.7 -401.06,694.7 -802.14,1389.4 -1203.2,2084" /><g
         transform="scale(1.03173)"
         id="g24"><path
           id="path26"
           style="fill:#333333;fill-opacity:1;fill-rule:evenodd;stroke:none"
           d="M 7126.86,16300 H 8888.28 V 14831.1 H 7264.2 c -501.75,0 -724.97,66.1 -1166.98,-218.4 -409.02,-263.4 -710.71,-679 -824.92,-1166.8 0,1303.9 2.9,2854.1 1854.56,2854.1" /></g><g
         transform="scale(1.0618)"
         id="g28"><path
           id="path30"
           style="fill:#333333;fill-opacity:1;fill-rule:evenodd;stroke:none"
           d="M 8543.75,16300 10148.3,15124.8 8543.75,13949.5 V 16300" /></g><g
         transform="scale(1.03173)"
         id="g32"><path
           id="path34"
           style="fill:#1a1a1a;fill-opacity:1;fill-rule:evenodd;stroke:none"
           d="m 13228.3,16300 c 579.3,-412.2 1017.9,-907.7 1345.7,-1468.9 -1226,0.1 -2452,0 -3678.1,0 0,489.7 0,979.3 0,1468.9 777.5,0 1554.9,0 2332.4,0" /></g><g
         transform="scale(1.03173)"
         id="g36"><path
           id="path38"
           style="fill:#333333;fill-opacity:1;fill-rule:evenodd;stroke:none"
           d="m 14772.8,13266.8 -880.8,-1525.4 -1272,734.4 812,1406.5 c 250.9,434.6 419.7,594.8 394.3,1119.9 -23.6,485.9 -232.6,955 -598,1297.8 1129.2,-651.9 2470.3,-1429.6 1544.5,-3033.2" /></g><path
         id="path40"
         style="fill:#333333;fill-opacity:1;fill-rule:evenodd;stroke:none"
         d="m 14806.6,11954.3 -1932.6,-851.6 -228.8,2099.4 z" /><path
         id="path42"
         style="fill:#1a1a1a;fill-opacity:1;fill-rule:evenodd;stroke:none"
         d="m 12293.8,8128.1 c -667.1,-305 -1336.1,-441.2 -2006.6,-444.7 632.5,1095.5 1265,2191 1897.4,3286.4 437.5,-252.5 875,-505.1 1312.5,-757.7 -401.1,-694.7 -802.2,-1389.3 -1203.3,-2084" /><path
         id="path44"
         style="fill:#333333;fill-opacity:1;fill-rule:evenodd;stroke:none"
         d="m 8786.98,8312.8 -908.65,1573.8 1312.42,757.8 837.85,-1451.2 c 258.8,-448.3 314.9,-681.8 797.2,-929.9 446.3,-229.7 973.3,-284.8 1468,-135.2 -1165,-672.6 -2551.6,-1469.8 -3506.82,184.7" /><path
         id="path46"
         style="fill:#333333;fill-opacity:1;fill-rule:evenodd;stroke:none"
         d="m 7503.14,9556.2 228.82,2099.4 1932.54,-851.5 z" /></g></g></svg>
